<svg xmlns="http://www.w3.org/2000/svg" xmlns:xlink="http://www.w3.org/1999/xlink" width="600" height="400" viewBox="0 0 2400 1600">
<defs>
  <clipPath id="clip860">
    <rect x="0" y="0" width="2400" height="1600"></rect>
  </clipPath>
</defs>
<path clip-path="url(#clip860)" d="M0 1600 L2400 1600 L2400 0 L0 0  Z" fill="#ffffff" fill-rule="evenodd" fill-opacity="1"></path>
<defs>
  <clipPath id="clip861">
    <rect x="480" y="0" width="1681" height="1600"></rect>
  </clipPath>
</defs>
<path clip-path="url(#clip860)" d="M249.542 1423.18 L2352.76 1423.18 L2352.76 47.2441 L249.542 47.2441  Z" fill="#ffffff" fill-rule="evenodd" fill-opacity="1"></path>
<defs>
  <clipPath id="clip862">
    <rect x="249" y="47" width="2104" height="1377"></rect>
  </clipPath>
</defs>
<polyline clip-path="url(#clip860)" style="stroke:#000000; stroke-linecap:round; stroke-linejoin:round; stroke-width:4; stroke-opacity:1; fill:none" points="249.542,1423.18 2352.76,1423.18 "></polyline>
<polyline clip-path="url(#clip860)" style="stroke:#000000; stroke-linecap:round; stroke-linejoin:round; stroke-width:4; stroke-opacity:1; fill:none" points="309.067,1423.18 309.067,1404.28 "></polyline>
<polyline clip-path="url(#clip860)" style="stroke:#000000; stroke-linecap:round; stroke-linejoin:round; stroke-width:4; stroke-opacity:1; fill:none" points="805.108,1423.18 805.108,1404.28 "></polyline>
<polyline clip-path="url(#clip860)" style="stroke:#000000; stroke-linecap:round; stroke-linejoin:round; stroke-width:4; stroke-opacity:1; fill:none" points="1301.15,1423.18 1301.15,1404.28 "></polyline>
<polyline clip-path="url(#clip860)" style="stroke:#000000; stroke-linecap:round; stroke-linejoin:round; stroke-width:4; stroke-opacity:1; fill:none" points="1797.19,1423.18 1797.19,1404.28 "></polyline>
<polyline clip-path="url(#clip860)" style="stroke:#000000; stroke-linecap:round; stroke-linejoin:round; stroke-width:4; stroke-opacity:1; fill:none" points="2293.23,1423.18 2293.23,1404.28 "></polyline>
<path clip-path="url(#clip860)" d="M276.22 1481.64 L283.859 1481.64 L283.859 1455.28 L275.549 1456.95 L275.549 1452.69 L283.812 1451.02 L288.488 1451.02 L288.488 1481.64 L296.127 1481.64 L296.127 1485.58 L276.22 1485.58 L276.22 1481.64 Z" fill="#000000" fill-rule="nonzero" fill-opacity="1"></path><path clip-path="url(#clip860)" d="M305.572 1479.7 L310.456 1479.7 L310.456 1485.58 L305.572 1485.58 L305.572 1479.7 Z" fill="#000000" fill-rule="nonzero" fill-opacity="1"></path><path clip-path="url(#clip860)" d="M330.641 1454.1 Q327.03 1454.1 325.201 1457.66 Q323.396 1461.2 323.396 1468.33 Q323.396 1475.44 325.201 1479.01 Q327.03 1482.55 330.641 1482.55 Q334.275 1482.55 336.081 1479.01 Q337.909 1475.44 337.909 1468.33 Q337.909 1461.2 336.081 1457.66 Q334.275 1454.1 330.641 1454.1 M330.641 1450.39 Q336.451 1450.39 339.507 1455 Q342.585 1459.58 342.585 1468.33 Q342.585 1477.06 339.507 1481.67 Q336.451 1486.25 330.641 1486.25 Q324.831 1486.25 321.752 1481.67 Q318.697 1477.06 318.697 1468.33 Q318.697 1459.58 321.752 1455 Q324.831 1450.39 330.641 1450.39 Z" fill="#000000" fill-rule="nonzero" fill-opacity="1"></path><path clip-path="url(#clip860)" d="M772.759 1481.64 L780.397 1481.64 L780.397 1455.28 L772.087 1456.95 L772.087 1452.69 L780.351 1451.02 L785.027 1451.02 L785.027 1481.64 L792.666 1481.64 L792.666 1485.58 L772.759 1485.58 L772.759 1481.64 Z" fill="#000000" fill-rule="nonzero" fill-opacity="1"></path><path clip-path="url(#clip860)" d="M802.11 1479.7 L806.995 1479.7 L806.995 1485.58 L802.11 1485.58 L802.11 1479.7 Z" fill="#000000" fill-rule="nonzero" fill-opacity="1"></path><path clip-path="url(#clip860)" d="M817.226 1451.02 L835.582 1451.02 L835.582 1454.96 L821.508 1454.96 L821.508 1463.43 Q822.527 1463.08 823.545 1462.92 Q824.564 1462.73 825.582 1462.73 Q831.369 1462.73 834.749 1465.9 Q838.129 1469.08 838.129 1474.49 Q838.129 1480.07 834.656 1483.17 Q831.184 1486.25 824.865 1486.25 Q822.689 1486.25 820.42 1485.88 Q818.175 1485.51 815.768 1484.77 L815.768 1480.07 Q817.851 1481.2 820.073 1481.76 Q822.295 1482.32 824.772 1482.32 Q828.777 1482.32 831.115 1480.21 Q833.453 1478.1 833.453 1474.49 Q833.453 1470.88 831.115 1468.77 Q828.777 1466.67 824.772 1466.67 Q822.897 1466.67 821.022 1467.08 Q819.17 1467.5 817.226 1468.38 L817.226 1451.02 Z" fill="#000000" fill-rule="nonzero" fill-opacity="1"></path><path clip-path="url(#clip860)" d="M1272.39 1481.64 L1288.71 1481.64 L1288.71 1485.58 L1266.76 1485.58 L1266.76 1481.64 Q1269.42 1478.89 1274.01 1474.26 Q1278.61 1469.61 1279.79 1468.27 Q1282.04 1465.74 1282.92 1464.01 Q1283.82 1462.25 1283.82 1460.56 Q1283.82 1457.8 1281.88 1456.07 Q1279.96 1454.33 1276.86 1454.33 Q1274.66 1454.33 1272.2 1455.09 Q1269.77 1455.86 1266.99 1457.41 L1266.99 1452.69 Q1269.82 1451.55 1272.27 1450.97 Q1274.73 1450.39 1276.76 1450.39 Q1282.13 1450.39 1285.33 1453.08 Q1288.52 1455.77 1288.52 1460.26 Q1288.52 1462.39 1287.71 1464.31 Q1286.92 1466.2 1284.82 1468.8 Q1284.24 1469.47 1281.14 1472.69 Q1278.04 1475.88 1272.39 1481.64 Z" fill="#000000" fill-rule="nonzero" fill-opacity="1"></path><path clip-path="url(#clip860)" d="M1298.52 1479.7 L1303.41 1479.7 L1303.41 1485.58 L1298.52 1485.58 L1298.52 1479.7 Z" fill="#000000" fill-rule="nonzero" fill-opacity="1"></path><path clip-path="url(#clip860)" d="M1323.59 1454.1 Q1319.98 1454.1 1318.15 1457.66 Q1316.35 1461.2 1316.35 1468.33 Q1316.35 1475.44 1318.15 1479.01 Q1319.98 1482.55 1323.59 1482.55 Q1327.23 1482.55 1329.03 1479.01 Q1330.86 1475.44 1330.86 1468.33 Q1330.86 1461.2 1329.03 1457.66 Q1327.23 1454.1 1323.59 1454.1 M1323.59 1450.39 Q1329.4 1450.39 1332.46 1455 Q1335.54 1459.58 1335.54 1468.33 Q1335.54 1477.06 1332.46 1481.67 Q1329.4 1486.25 1323.59 1486.25 Q1317.78 1486.25 1314.7 1481.67 Q1311.65 1477.06 1311.65 1468.33 Q1311.65 1459.58 1314.7 1455 Q1317.78 1450.39 1323.59 1450.39 Z" fill="#000000" fill-rule="nonzero" fill-opacity="1"></path><path clip-path="url(#clip860)" d="M1768.93 1481.64 L1785.25 1481.64 L1785.25 1485.58 L1763.3 1485.58 L1763.3 1481.64 Q1765.96 1478.89 1770.55 1474.26 Q1775.15 1469.61 1776.33 1468.27 Q1778.58 1465.74 1779.46 1464.01 Q1780.36 1462.25 1780.36 1460.56 Q1780.36 1457.8 1778.42 1456.07 Q1776.5 1454.33 1773.39 1454.33 Q1771.19 1454.33 1768.74 1455.09 Q1766.31 1455.86 1763.53 1457.41 L1763.53 1452.69 Q1766.36 1451.55 1768.81 1450.97 Q1771.26 1450.39 1773.3 1450.39 Q1778.67 1450.39 1781.87 1453.08 Q1785.06 1455.77 1785.06 1460.26 Q1785.06 1462.39 1784.25 1464.31 Q1783.46 1466.2 1781.36 1468.8 Q1780.78 1469.47 1777.68 1472.69 Q1774.57 1475.88 1768.93 1481.64 Z" fill="#000000" fill-rule="nonzero" fill-opacity="1"></path><path clip-path="url(#clip860)" d="M1795.06 1479.7 L1799.94 1479.7 L1799.94 1485.58 L1795.06 1485.58 L1795.06 1479.7 Z" fill="#000000" fill-rule="nonzero" fill-opacity="1"></path><path clip-path="url(#clip860)" d="M1810.18 1451.02 L1828.53 1451.02 L1828.53 1454.96 L1814.46 1454.96 L1814.46 1463.43 Q1815.48 1463.08 1816.5 1462.92 Q1817.51 1462.73 1818.53 1462.73 Q1824.32 1462.73 1827.7 1465.9 Q1831.08 1469.08 1831.08 1474.49 Q1831.08 1480.07 1827.61 1483.17 Q1824.13 1486.25 1817.81 1486.25 Q1815.64 1486.25 1813.37 1485.88 Q1811.13 1485.51 1808.72 1484.77 L1808.72 1480.07 Q1810.8 1481.2 1813.02 1481.76 Q1815.25 1482.32 1817.72 1482.32 Q1821.73 1482.32 1824.06 1480.21 Q1826.4 1478.1 1826.4 1474.49 Q1826.4 1470.88 1824.06 1468.77 Q1821.73 1466.67 1817.72 1466.67 Q1815.85 1466.67 1813.97 1467.08 Q1812.12 1467.5 1810.18 1468.38 L1810.18 1451.02 Z" fill="#000000" fill-rule="nonzero" fill-opacity="1"></path><path clip-path="url(#clip860)" d="M2274.54 1466.95 Q2277.9 1467.66 2279.77 1469.93 Q2281.67 1472.2 2281.67 1475.53 Q2281.67 1480.65 2278.15 1483.45 Q2274.63 1486.25 2268.15 1486.25 Q2265.97 1486.25 2263.66 1485.81 Q2261.37 1485.39 2258.91 1484.54 L2258.91 1480.02 Q2260.86 1481.16 2263.17 1481.74 Q2265.49 1482.32 2268.01 1482.32 Q2272.41 1482.32 2274.7 1480.58 Q2277.02 1478.84 2277.02 1475.53 Q2277.02 1472.48 2274.86 1470.77 Q2272.73 1469.03 2268.91 1469.03 L2264.89 1469.03 L2264.89 1465.19 L2269.1 1465.19 Q2272.55 1465.19 2274.38 1463.82 Q2276.21 1462.43 2276.21 1459.84 Q2276.21 1457.18 2274.31 1455.77 Q2272.43 1454.33 2268.91 1454.33 Q2266.99 1454.33 2264.79 1454.75 Q2262.59 1455.16 2259.96 1456.04 L2259.96 1451.88 Q2262.62 1451.14 2264.93 1450.77 Q2267.27 1450.39 2269.33 1450.39 Q2274.65 1450.39 2277.76 1452.83 Q2280.86 1455.23 2280.86 1459.35 Q2280.86 1462.22 2279.21 1464.21 Q2277.57 1466.18 2274.54 1466.95 Z" fill="#000000" fill-rule="nonzero" fill-opacity="1"></path><path clip-path="url(#clip860)" d="M2290.53 1479.7 L2295.42 1479.7 L2295.42 1485.58 L2290.53 1485.58 L2290.53 1479.7 Z" fill="#000000" fill-rule="nonzero" fill-opacity="1"></path><path clip-path="url(#clip860)" d="M2315.6 1454.1 Q2311.99 1454.1 2310.16 1457.66 Q2308.36 1461.2 2308.36 1468.33 Q2308.36 1475.44 2310.16 1479.01 Q2311.99 1482.55 2315.6 1482.55 Q2319.24 1482.55 2321.04 1479.01 Q2322.87 1475.44 2322.87 1468.33 Q2322.87 1461.2 2321.04 1457.66 Q2319.24 1454.1 2315.6 1454.1 M2315.6 1450.39 Q2321.41 1450.39 2324.47 1455 Q2327.55 1459.58 2327.55 1468.33 Q2327.55 1477.06 2324.47 1481.67 Q2321.41 1486.25 2315.6 1486.25 Q2309.79 1486.25 2306.71 1481.67 Q2303.66 1477.06 2303.66 1468.33 Q2303.66 1459.58 2306.71 1455 Q2309.79 1450.39 2315.6 1450.39 Z" fill="#000000" fill-rule="nonzero" fill-opacity="1"></path><path clip-path="url(#clip860)" d="M1309.62 1531.91 Q1309.62 1532.81 1309.2 1533.04 Q1308.78 1533.23 1307.62 1533.23 L1301.44 1533.23 L1296.54 1552.69 Q1296.16 1554.39 1296.16 1555.84 Q1296.16 1557.45 1296.64 1558.16 Q1297.16 1558.87 1298.22 1558.87 Q1300.31 1558.87 1302.57 1556.97 Q1304.85 1555.07 1306.79 1550.43 Q1307.04 1549.82 1307.17 1549.69 Q1307.33 1549.53 1307.75 1549.53 Q1308.56 1549.53 1308.56 1550.17 Q1308.56 1550.4 1308.11 1551.43 Q1307.69 1552.46 1306.75 1553.97 Q1305.85 1555.49 1304.66 1556.9 Q1303.5 1558.32 1301.73 1559.35 Q1299.96 1560.35 1298.06 1560.35 Q1295.38 1560.35 1293.68 1558.64 Q1292 1556.94 1292 1554.26 Q1292 1553.39 1292.68 1550.62 Q1293.36 1547.82 1297.03 1533.23 L1291.2 1533.23 Q1290.39 1533.23 1290.07 1533.2 Q1289.78 1533.17 1289.56 1533.01 Q1289.36 1532.81 1289.36 1532.43 Q1289.36 1531.82 1289.62 1531.56 Q1289.88 1531.27 1290.2 1531.24 Q1290.55 1531.17 1291.36 1531.17 L1297.54 1531.17 L1300.12 1520.71 Q1300.38 1519.67 1301.02 1519.09 Q1301.7 1518.48 1302.08 1518.42 Q1302.47 1518.32 1302.76 1518.32 Q1303.63 1518.32 1304.14 1518.81 Q1304.66 1519.26 1304.66 1520.09 Q1304.66 1520.54 1301.95 1531.17 L1307.75 1531.17 Q1308.49 1531.17 1308.78 1531.2 Q1309.1 1531.24 1309.36 1531.4 Q1309.62 1531.56 1309.62 1531.91 Z" fill="#000000" fill-rule="nonzero" fill-opacity="1"></path><polyline clip-path="url(#clip860)" style="stroke:#000000; stroke-linecap:round; stroke-linejoin:round; stroke-width:4; stroke-opacity:1; fill:none" points="249.542,1423.18 249.542,47.2441 "></polyline>
<polyline clip-path="url(#clip860)" style="stroke:#000000; stroke-linecap:round; stroke-linejoin:round; stroke-width:4; stroke-opacity:1; fill:none" points="249.542,1384.24 268.44,1384.24 "></polyline>
<polyline clip-path="url(#clip860)" style="stroke:#000000; stroke-linecap:round; stroke-linejoin:round; stroke-width:4; stroke-opacity:1; fill:none" points="249.542,1059.73 268.44,1059.73 "></polyline>
<polyline clip-path="url(#clip860)" style="stroke:#000000; stroke-linecap:round; stroke-linejoin:round; stroke-width:4; stroke-opacity:1; fill:none" points="249.542,735.212 268.44,735.212 "></polyline>
<polyline clip-path="url(#clip860)" style="stroke:#000000; stroke-linecap:round; stroke-linejoin:round; stroke-width:4; stroke-opacity:1; fill:none" points="249.542,410.699 268.44,410.699 "></polyline>
<polyline clip-path="url(#clip860)" style="stroke:#000000; stroke-linecap:round; stroke-linejoin:round; stroke-width:4; stroke-opacity:1; fill:none" points="249.542,86.1857 268.44,86.1857 "></polyline>
<path clip-path="url(#clip860)" d="M126.205 1370.04 Q122.593 1370.04 120.765 1373.6 Q118.959 1377.14 118.959 1384.27 Q118.959 1391.38 120.765 1394.94 Q122.593 1398.49 126.205 1398.49 Q129.839 1398.49 131.644 1394.94 Q133.473 1391.38 133.473 1384.27 Q133.473 1377.14 131.644 1373.6 Q129.839 1370.04 126.205 1370.04 M126.205 1366.33 Q132.015 1366.33 135.07 1370.94 Q138.149 1375.52 138.149 1384.27 Q138.149 1393 135.07 1397.61 Q132.015 1402.19 126.205 1402.19 Q120.394 1402.19 117.316 1397.61 Q114.26 1393 114.26 1384.27 Q114.26 1375.52 117.316 1370.94 Q120.394 1366.33 126.205 1366.33 Z" fill="#000000" fill-rule="nonzero" fill-opacity="1"></path><path clip-path="url(#clip860)" d="M146.366 1395.64 L151.251 1395.64 L151.251 1401.52 L146.366 1401.52 L146.366 1395.64 Z" fill="#000000" fill-rule="nonzero" fill-opacity="1"></path><path clip-path="url(#clip860)" d="M171.436 1370.04 Q167.825 1370.04 165.996 1373.6 Q164.19 1377.14 164.19 1384.27 Q164.19 1391.38 165.996 1394.94 Q167.825 1398.49 171.436 1398.49 Q175.07 1398.49 176.876 1394.94 Q178.704 1391.38 178.704 1384.27 Q178.704 1377.14 176.876 1373.6 Q175.07 1370.04 171.436 1370.04 M171.436 1366.33 Q177.246 1366.33 180.301 1370.94 Q183.38 1375.52 183.38 1384.27 Q183.38 1393 180.301 1397.61 Q177.246 1402.19 171.436 1402.19 Q165.626 1402.19 162.547 1397.61 Q159.491 1393 159.491 1384.27 Q159.491 1375.52 162.547 1370.94 Q165.626 1366.33 171.436 1366.33 Z" fill="#000000" fill-rule="nonzero" fill-opacity="1"></path><path clip-path="url(#clip860)" d="M201.598 1370.04 Q197.987 1370.04 196.158 1373.6 Q194.352 1377.14 194.352 1384.27 Q194.352 1391.38 196.158 1394.94 Q197.987 1398.49 201.598 1398.49 Q205.232 1398.49 207.037 1394.94 Q208.866 1391.38 208.866 1384.27 Q208.866 1377.14 207.037 1373.6 Q205.232 1370.04 201.598 1370.04 M201.598 1366.33 Q207.408 1366.33 210.463 1370.94 Q213.542 1375.52 213.542 1384.27 Q213.542 1393 210.463 1397.61 Q207.408 1402.19 201.598 1402.19 Q195.787 1402.19 192.709 1397.61 Q189.653 1393 189.653 1384.27 Q189.653 1375.52 192.709 1370.94 Q195.787 1366.33 201.598 1366.33 Z" fill="#000000" fill-rule="nonzero" fill-opacity="1"></path><path clip-path="url(#clip860)" d="M127.2 1045.52 Q123.589 1045.52 121.76 1049.09 Q119.955 1052.63 119.955 1059.76 Q119.955 1066.87 121.76 1070.43 Q123.589 1073.97 127.2 1073.97 Q130.834 1073.97 132.64 1070.43 Q134.468 1066.87 134.468 1059.76 Q134.468 1052.63 132.64 1049.09 Q130.834 1045.52 127.2 1045.52 M127.2 1041.82 Q133.01 1041.82 136.066 1046.43 Q139.144 1051.01 139.144 1059.76 Q139.144 1068.49 136.066 1073.09 Q133.01 1077.68 127.2 1077.68 Q121.39 1077.68 118.311 1073.09 Q115.256 1068.49 115.256 1059.76 Q115.256 1051.01 118.311 1046.43 Q121.39 1041.82 127.2 1041.82 Z" fill="#000000" fill-rule="nonzero" fill-opacity="1"></path><path clip-path="url(#clip860)" d="M147.362 1071.13 L152.246 1071.13 L152.246 1077.01 L147.362 1077.01 L147.362 1071.13 Z" fill="#000000" fill-rule="nonzero" fill-opacity="1"></path><path clip-path="url(#clip860)" d="M166.459 1073.07 L182.778 1073.07 L182.778 1077.01 L160.834 1077.01 L160.834 1073.07 Q163.496 1070.32 168.079 1065.69 Q172.686 1061.03 173.866 1059.69 Q176.112 1057.17 176.991 1055.43 Q177.894 1053.67 177.894 1051.98 Q177.894 1049.23 175.95 1047.49 Q174.028 1045.76 170.927 1045.76 Q168.727 1045.76 166.274 1046.52 Q163.843 1047.28 161.065 1048.83 L161.065 1044.11 Q163.89 1042.98 166.343 1042.4 Q168.797 1041.82 170.834 1041.82 Q176.204 1041.82 179.399 1044.51 Q182.593 1047.19 182.593 1051.68 Q182.593 1053.81 181.783 1055.73 Q180.996 1057.63 178.889 1060.22 Q178.311 1060.89 175.209 1064.11 Q172.107 1067.31 166.459 1073.07 Z" fill="#000000" fill-rule="nonzero" fill-opacity="1"></path><path clip-path="url(#clip860)" d="M192.639 1042.45 L210.996 1042.45 L210.996 1046.38 L196.922 1046.38 L196.922 1054.85 Q197.94 1054.51 198.959 1054.34 Q199.977 1054.16 200.996 1054.16 Q206.783 1054.16 210.162 1057.33 Q213.542 1060.5 213.542 1065.92 Q213.542 1071.5 210.07 1074.6 Q206.598 1077.68 200.278 1077.68 Q198.102 1077.68 195.834 1077.31 Q193.588 1076.94 191.181 1076.19 L191.181 1071.5 Q193.264 1072.63 195.487 1073.19 Q197.709 1073.74 200.186 1073.74 Q204.19 1073.74 206.528 1071.63 Q208.866 1069.53 208.866 1065.92 Q208.866 1062.31 206.528 1060.2 Q204.19 1058.09 200.186 1058.09 Q198.311 1058.09 196.436 1058.51 Q194.584 1058.93 192.639 1059.81 L192.639 1042.45 Z" fill="#000000" fill-rule="nonzero" fill-opacity="1"></path><path clip-path="url(#clip860)" d="M126.205 721.011 Q122.593 721.011 120.765 724.575 Q118.959 728.117 118.959 735.247 Q118.959 742.353 120.765 745.918 Q122.593 749.46 126.205 749.46 Q129.839 749.46 131.644 745.918 Q133.473 742.353 133.473 735.247 Q133.473 728.117 131.644 724.575 Q129.839 721.011 126.205 721.011 M126.205 717.307 Q132.015 717.307 135.07 721.913 Q138.149 726.497 138.149 735.247 Q138.149 743.973 135.07 748.58 Q132.015 753.163 126.205 753.163 Q120.394 753.163 117.316 748.58 Q114.26 743.973 114.26 735.247 Q114.26 726.497 117.316 721.913 Q120.394 717.307 126.205 717.307 Z" fill="#000000" fill-rule="nonzero" fill-opacity="1"></path><path clip-path="url(#clip860)" d="M146.366 746.612 L151.251 746.612 L151.251 752.492 L146.366 752.492 L146.366 746.612 Z" fill="#000000" fill-rule="nonzero" fill-opacity="1"></path><path clip-path="url(#clip860)" d="M161.482 717.932 L179.839 717.932 L179.839 721.867 L165.765 721.867 L165.765 730.339 Q166.783 729.992 167.802 729.83 Q168.82 729.645 169.839 729.645 Q175.626 729.645 179.005 732.816 Q182.385 735.987 182.385 741.404 Q182.385 746.983 178.913 750.085 Q175.44 753.163 169.121 753.163 Q166.945 753.163 164.677 752.793 Q162.431 752.423 160.024 751.682 L160.024 746.983 Q162.107 748.117 164.329 748.673 Q166.552 749.228 169.028 749.228 Q173.033 749.228 175.371 747.122 Q177.709 745.015 177.709 741.404 Q177.709 737.793 175.371 735.687 Q173.033 733.58 169.028 733.58 Q167.153 733.58 165.278 733.997 Q163.427 734.413 161.482 735.293 L161.482 717.932 Z" fill="#000000" fill-rule="nonzero" fill-opacity="1"></path><path clip-path="url(#clip860)" d="M201.598 721.011 Q197.987 721.011 196.158 724.575 Q194.352 728.117 194.352 735.247 Q194.352 742.353 196.158 745.918 Q197.987 749.46 201.598 749.46 Q205.232 749.46 207.037 745.918 Q208.866 742.353 208.866 735.247 Q208.866 728.117 207.037 724.575 Q205.232 721.011 201.598 721.011 M201.598 717.307 Q207.408 717.307 210.463 721.913 Q213.542 726.497 213.542 735.247 Q213.542 743.973 210.463 748.58 Q207.408 753.163 201.598 753.163 Q195.787 753.163 192.709 748.58 Q189.653 743.973 189.653 735.247 Q189.653 726.497 192.709 721.913 Q195.787 717.307 201.598 717.307 Z" fill="#000000" fill-rule="nonzero" fill-opacity="1"></path><path clip-path="url(#clip860)" d="M127.2 396.498 Q123.589 396.498 121.76 400.062 Q119.955 403.604 119.955 410.734 Q119.955 417.84 121.76 421.405 Q123.589 424.946 127.2 424.946 Q130.834 424.946 132.64 421.405 Q134.468 417.84 134.468 410.734 Q134.468 403.604 132.64 400.062 Q130.834 396.498 127.2 396.498 M127.2 392.794 Q133.01 392.794 136.066 397.4 Q139.144 401.984 139.144 410.734 Q139.144 419.46 136.066 424.067 Q133.01 428.65 127.2 428.65 Q121.39 428.65 118.311 424.067 Q115.256 419.46 115.256 410.734 Q115.256 401.984 118.311 397.4 Q121.39 392.794 127.2 392.794 Z" fill="#000000" fill-rule="nonzero" fill-opacity="1"></path><path clip-path="url(#clip860)" d="M147.362 422.099 L152.246 422.099 L152.246 427.979 L147.362 427.979 L147.362 422.099 Z" fill="#000000" fill-rule="nonzero" fill-opacity="1"></path><path clip-path="url(#clip860)" d="M161.251 393.419 L183.473 393.419 L183.473 395.41 L170.927 427.979 L166.042 427.979 L177.848 397.354 L161.251 397.354 L161.251 393.419 Z" fill="#000000" fill-rule="nonzero" fill-opacity="1"></path><path clip-path="url(#clip860)" d="M192.639 393.419 L210.996 393.419 L210.996 397.354 L196.922 397.354 L196.922 405.826 Q197.94 405.479 198.959 405.317 Q199.977 405.132 200.996 405.132 Q206.783 405.132 210.162 408.303 Q213.542 411.474 213.542 416.891 Q213.542 422.47 210.07 425.571 Q206.598 428.65 200.278 428.65 Q198.102 428.65 195.834 428.28 Q193.588 427.909 191.181 427.169 L191.181 422.47 Q193.264 423.604 195.487 424.159 Q197.709 424.715 200.186 424.715 Q204.19 424.715 206.528 422.608 Q208.866 420.502 208.866 416.891 Q208.866 413.28 206.528 411.173 Q204.19 409.067 200.186 409.067 Q198.311 409.067 196.436 409.484 Q194.584 409.9 192.639 410.78 L192.639 393.419 Z" fill="#000000" fill-rule="nonzero" fill-opacity="1"></path><path clip-path="url(#clip860)" d="M117.015 99.5305 L124.654 99.5305 L124.654 73.1649 L116.343 74.8316 L116.343 70.5723 L124.607 68.9057 L129.283 68.9057 L129.283 99.5305 L136.922 99.5305 L136.922 103.466 L117.015 103.466 L117.015 99.5305 Z" fill="#000000" fill-rule="nonzero" fill-opacity="1"></path><path clip-path="url(#clip860)" d="M146.366 97.5861 L151.251 97.5861 L151.251 103.466 L146.366 103.466 L146.366 97.5861 Z" fill="#000000" fill-rule="nonzero" fill-opacity="1"></path><path clip-path="url(#clip860)" d="M171.436 71.9844 Q167.825 71.9844 165.996 75.5492 Q164.19 79.0908 164.19 86.2204 Q164.19 93.3268 165.996 96.8916 Q167.825 100.433 171.436 100.433 Q175.07 100.433 176.876 96.8916 Q178.704 93.3268 178.704 86.2204 Q178.704 79.0908 176.876 75.5492 Q175.07 71.9844 171.436 71.9844 M171.436 68.2807 Q177.246 68.2807 180.301 72.8871 Q183.38 77.4704 183.38 86.2204 Q183.38 94.9472 180.301 99.5537 Q177.246 104.137 171.436 104.137 Q165.626 104.137 162.547 99.5537 Q159.491 94.9472 159.491 86.2204 Q159.491 77.4704 162.547 72.8871 Q165.626 68.2807 171.436 68.2807 Z" fill="#000000" fill-rule="nonzero" fill-opacity="1"></path><path clip-path="url(#clip860)" d="M201.598 71.9844 Q197.987 71.9844 196.158 75.5492 Q194.352 79.0908 194.352 86.2204 Q194.352 93.3268 196.158 96.8916 Q197.987 100.433 201.598 100.433 Q205.232 100.433 207.037 96.8916 Q208.866 93.3268 208.866 86.2204 Q208.866 79.0908 207.037 75.5492 Q205.232 71.9844 201.598 71.9844 M201.598 68.2807 Q207.408 68.2807 210.463 72.8871 Q213.542 77.4704 213.542 86.2204 Q213.542 94.9472 210.463 99.5537 Q207.408 104.137 201.598 104.137 Q195.787 104.137 192.709 99.5537 Q189.653 94.9472 189.653 86.2204 Q189.653 77.4704 192.709 72.8871 Q195.787 68.2807 201.598 68.2807 Z" fill="#000000" fill-rule="nonzero" fill-opacity="1"></path><path clip-path="url(#clip860)" d="M29.1078 748.745 Q33.8743 748.745 38.3509 751.192 Q42.8275 753.608 45.5328 757.408 Q48.2381 761.176 48.2381 764.976 Q48.2381 769.26 43.7937 771.482 Q59.9288 775.508 60.3475 775.733 Q61.7324 776.667 61.7324 778.02 Q61.7324 778.857 61.2171 779.372 Q60.734 779.888 59.961 779.888 Q59.7034 779.855 58.8983 779.662 L32.9725 773.221 Q26.95 771.74 22.6667 767.263 Q18.3511 762.754 18.3511 757.923 Q18.3511 754.091 21.2174 751.418 Q24.0837 748.745 29.1078 748.745 M26.2737 753.479 Q23.0531 753.479 21.4428 754.767 Q19.8003 756.055 19.8003 758.052 Q19.8003 759.888 21.2818 762.11 Q22.7633 764.3 26.0483 766.232 Q27.9484 767.263 30.2994 768.004 Q32.6505 768.744 38.4475 770.194 Q40.7664 770.709 40.8952 770.709 Q41.1528 770.709 41.7325 770.58 Q42.3122 770.419 43.214 770.033 Q44.0836 769.614 44.8565 769.034 Q45.6294 768.455 46.2091 767.392 Q46.7566 766.329 46.7566 765.041 Q46.7566 763.044 45.1463 760.918 Q43.5038 758.761 40.5087 757.183 Q38.0933 755.862 33.5522 754.67 Q28.979 753.479 26.2737 753.479 Z" fill="#000000" fill-rule="nonzero" fill-opacity="1"></path><path clip-path="url(#clip860)" d="M65.1013 742.004 Q58.3155 742.004 54.6183 740.291 Q49.1175 737.901 49.1175 732.265 Q49.1175 731.07 49.4557 729.83 Q49.7713 728.568 51.0112 726.99 Q52.2512 725.389 54.2801 724.42 Q58.2028 722.571 65.1013 722.571 Q71.842 722.571 75.5167 724.284 Q80.8822 726.787 80.8822 732.31 Q80.8822 734.384 79.8226 736.503 Q78.763 738.6 76.2155 739.93 Q72.4056 742.004 65.1013 742.004 M64.5377 738.171 Q71.5038 738.171 74.2768 737.675 Q77.2751 737.112 78.5827 735.579 Q79.8677 734.023 79.8677 732.31 Q79.8677 730.461 78.4925 728.928 Q77.0948 727.373 74.0964 726.899 Q71.1431 726.381 64.5377 726.403 Q58.1126 726.403 55.5426 726.854 Q52.5442 727.463 51.3494 729.086 Q50.132 730.687 50.132 732.31 Q50.132 732.919 50.3124 733.572 Q50.4927 734.204 51.0112 735.128 Q51.5298 736.052 52.8148 736.774 Q54.0998 737.473 56.0386 737.811 Q58.541 738.171 64.5377 738.171 Z" fill="#000000" fill-rule="nonzero" fill-opacity="1"></path><path clip-path="url(#clip860)" d="M53.5136 720.441 L52.0708 720.441 Q52.0708 714.895 49.1175 712.032 Q49.1175 711.243 49.2979 711.108 Q49.4782 710.973 50.3124 710.973 L76.2155 710.973 Q77.5907 710.973 78.0191 710.296 Q78.4474 709.62 78.4474 706.667 L78.4474 705.201 L79.8677 705.201 Q79.7324 706.824 79.7324 712.686 Q79.7324 718.547 79.8677 720.148 L78.4474 720.148 L78.4474 718.683 Q78.4474 715.774 78.0416 715.076 Q77.6133 714.377 76.2155 714.377 L52.2963 714.377 Q53.5136 716.789 53.5136 720.441 Z" fill="#000000" fill-rule="nonzero" fill-opacity="1"></path><polyline clip-path="url(#clip862)" style="stroke:#009af9; stroke-linecap:round; stroke-linejoin:round; stroke-width:12; stroke-opacity:1; fill:none" points="309.067,86.1857 358.671,1384.24 408.275,1384.24 457.879,1384.24 507.483,1384.24 557.087,1384.24 606.692,1384.24 656.296,1384.24 705.9,1384.24 755.504,1384.24 805.108,1384.24 854.712,1384.24 904.316,1384.24 953.92,1384.24 1003.52,1384.24 1053.13,1384.24 1102.73,1384.24 1152.34,1384.24 1201.94,1384.24 1251.54,317.609 1301.15,330.24 1350.75,342.606 1400.36,354.714 1449.96,366.569 1499.57,378.182 1549.17,389.557 1598.77,400.704 1648.38,411.63 1697.98,422.342 1747.59,432.847 1797.19,443.151 1846.79,453.263 1896.4,463.187 1946,472.931 1995.61,482.5 2045.21,491.9 2094.81,501.137 2144.42,510.215 2194.02,519.141 2243.63,527.919 2293.23,536.554 "></polyline>
<path clip-path="url(#clip860)" d="M1900.64 196.789 L2282.65 196.789 L2282.65 93.1086 L1900.64 93.1086  Z" fill="#ffffff" fill-rule="evenodd" fill-opacity="1"></path>
<polyline clip-path="url(#clip860)" style="stroke:#000000; stroke-linecap:round; stroke-linejoin:round; stroke-width:4; stroke-opacity:1; fill:none" points="1900.64,196.789 2282.65,196.789 2282.65,93.1086 1900.64,93.1086 1900.64,196.789 "></polyline>
<polyline clip-path="url(#clip860)" style="stroke:#009af9; stroke-linecap:round; stroke-linejoin:round; stroke-width:12; stroke-opacity:1; fill:none" points="1924.01,144.949 2064.22,144.949 "></polyline>
<path clip-path="url(#clip860)" d="M2087.59 127.669 L2092.27 127.669 L2092.27 142.275 L2107.78 127.669 L2113.79 127.669 L2096.64 143.78 L2115.02 162.229 L2108.86 162.229 L2092.27 145.585 L2092.27 162.229 L2087.59 162.229 L2087.59 127.669 Z" fill="#000000" fill-rule="nonzero" fill-opacity="1"></path><path clip-path="url(#clip860)" d="M2115.69 151.997 L2115.69 136.303 L2119.95 136.303 L2119.95 151.835 Q2119.95 155.516 2121.39 157.368 Q2122.82 159.196 2125.69 159.196 Q2129.14 159.196 2131.13 156.997 Q2133.15 154.798 2133.15 151.002 L2133.15 136.303 L2137.41 136.303 L2137.41 162.229 L2133.15 162.229 L2133.15 158.247 Q2131.6 160.608 2129.54 161.766 Q2127.5 162.9 2124.79 162.9 Q2120.32 162.9 2118.01 160.122 Q2115.69 157.344 2115.69 151.997 M2126.41 135.678 L2126.41 135.678 Z" fill="#000000" fill-rule="nonzero" fill-opacity="1"></path><path clip-path="url(#clip860)" d="M2161.2 140.284 Q2160.48 139.868 2159.63 139.682 Q2158.79 139.474 2157.78 139.474 Q2154.16 139.474 2152.22 141.835 Q2150.3 144.173 2150.3 148.571 L2150.3 162.229 L2146.02 162.229 L2146.02 136.303 L2150.3 136.303 L2150.3 140.331 Q2151.64 137.969 2153.79 136.835 Q2155.95 135.678 2159.03 135.678 Q2159.47 135.678 2160 135.747 Q2160.53 135.794 2161.18 135.909 L2161.2 140.284 Z" fill="#000000" fill-rule="nonzero" fill-opacity="1"></path><path clip-path="url(#clip860)" d="M2162.61 136.303 L2167.13 136.303 L2175.23 158.062 L2183.33 136.303 L2187.84 136.303 L2178.12 162.229 L2172.34 162.229 L2162.61 136.303 Z" fill="#000000" fill-rule="nonzero" fill-opacity="1"></path><path clip-path="url(#clip860)" d="M2215.9 148.201 L2215.9 150.284 L2196.32 150.284 Q2196.59 154.682 2198.96 156.997 Q2201.34 159.289 2205.58 159.289 Q2208.03 159.289 2210.32 158.687 Q2212.64 158.085 2214.9 156.881 L2214.9 160.909 Q2212.61 161.881 2210.21 162.391 Q2207.8 162.9 2205.32 162.9 Q2199.12 162.9 2195.48 159.289 Q2191.87 155.678 2191.87 149.52 Q2191.87 143.155 2195.3 139.428 Q2198.75 135.678 2204.58 135.678 Q2209.81 135.678 2212.84 139.057 Q2215.9 142.414 2215.9 148.201 M2211.64 146.951 Q2211.59 143.456 2209.67 141.372 Q2207.78 139.289 2204.63 139.289 Q2201.06 139.289 2198.91 141.303 Q2196.78 143.317 2196.46 146.974 L2211.64 146.951 Z" fill="#000000" fill-rule="nonzero" fill-opacity="1"></path><path clip-path="url(#clip860)" d="M2239.37 158.293 L2247.01 158.293 L2247.01 131.928 L2238.7 133.595 L2238.7 129.335 L2246.96 127.669 L2251.64 127.669 L2251.64 158.293 L2259.28 158.293 L2259.28 162.229 L2239.37 162.229 L2239.37 158.293 Z" fill="#000000" fill-rule="nonzero" fill-opacity="1"></path></svg>